<svg width="233" height="60" viewBox="0 0 233 60" fill="none" xmlns="http://www.w3.org/2000/svg">
<path d="M89.5195 18.6008C89.5195 18.3924 89.6609 18.2524 89.8713 18.2524H94.3231C94.5336 18.2524 94.6749 18.3924 94.6749 18.6008V37.1072C94.6749 37.2472 94.744 37.3156 94.8854 37.3156H105.403C105.614 37.3156 105.755 37.4556 105.755 37.6608V41.5164C105.755 41.7248 105.614 41.8649 105.403 41.8649H89.8746C89.6642 41.8649 89.5228 41.7248 89.5228 41.5164V18.6008H89.5195Z" fill="#2F2725"/>
<path d="M116.96 18.6008C117.029 18.3924 117.171 18.2524 117.417 18.2524H121.833C122.08 18.2524 122.218 18.3924 122.29 18.6008L130.352 41.5164C130.421 41.7248 130.352 41.8649 130.109 41.8649H125.552C125.308 41.8649 125.167 41.7607 125.095 41.5164L123.727 37.384H115.382L114.051 41.5164C113.981 41.7607 113.84 41.8649 113.594 41.8649H109C108.757 41.8649 108.685 41.7248 108.757 41.5164L116.96 18.6008ZM122.323 33.0464L119.624 24.7815H119.518L116.819 33.0464H122.323Z" fill="#2F2725"/>
<path d="M133.354 18.6008C133.354 18.3924 133.495 18.2524 133.706 18.2524H137.911C138.157 18.2524 138.368 18.3566 138.506 18.6008L146.92 33.46H147.094V18.6008C147.094 18.3924 147.235 18.2524 147.446 18.2524H151.408C151.618 18.2524 151.759 18.3924 151.759 18.6008V41.5164C151.759 41.7248 151.618 41.8649 151.408 41.8649H147.235C146.956 41.8649 146.778 41.7607 146.64 41.5164L138.19 26.6898H138.016V41.5164C138.016 41.7248 137.875 41.8649 137.664 41.8649H133.702C133.492 41.8649 133.35 41.7248 133.35 41.5164V18.6008H133.354Z" fill="#2F2725"/>
<path d="M156.228 18.6008C156.228 18.3924 156.369 18.2524 156.579 18.2524H165.447C169.619 18.2524 172.529 20.0239 173.686 23.5636C174.107 24.8825 174.318 26.2046 174.318 30.057C174.318 33.9094 174.107 35.2315 173.686 36.5503C172.529 40.0933 169.619 41.8616 165.447 41.8616H156.579C156.369 41.8616 156.228 41.7216 156.228 41.5132V18.6008ZM161.59 37.3156H164.29C166.673 37.3156 168.11 36.622 168.708 34.7104C168.952 34.0168 169.093 33.1148 169.093 30.057C169.093 26.9992 168.952 26.1004 168.708 25.4035C168.113 23.4953 166.677 22.7984 164.29 22.7984H161.59C161.449 22.7984 161.38 22.8668 161.38 23.0068V37.1039C161.38 37.244 161.449 37.3123 161.59 37.3123V37.3156Z" fill="#2F2725"/>
<path d="M178.654 18.6008C178.654 18.3924 178.796 18.2524 179.006 18.2524H183.458C183.668 18.2524 183.81 18.3924 183.81 18.6008V41.5164C183.81 41.7248 183.668 41.8649 183.458 41.8649H179.006C178.796 41.8649 178.654 41.7248 178.654 41.5164V18.6008Z" fill="#2F2725"/>
<path d="M195.219 41.8649C195.008 41.8649 194.867 41.7248 194.867 41.5164V23.01C194.867 22.87 194.798 22.8016 194.657 22.8016H188.627C188.416 22.8016 188.275 22.6616 188.275 22.4532V18.6008C188.275 18.3924 188.416 18.2524 188.627 18.2524H206.26C206.47 18.2524 206.611 18.3924 206.611 18.6008V22.4532C206.611 22.6616 206.47 22.8016 206.26 22.8016H200.23C200.088 22.8016 200.019 22.87 200.019 23.01V41.5164C200.019 41.7248 199.878 41.8649 199.667 41.8649H195.216H195.219Z" fill="#2F2725"/>
<path d="M54.3588 43.0991C54.1944 43.0991 54.1286 43.213 54.2108 43.3531L58.2319 50.2502C58.5607 50.8136 59.0966 50.8136 59.4254 50.2502L63.4465 43.3531C63.5287 43.213 63.463 43.0991 63.2986 43.0991H54.3621H54.3588Z" fill="#0084CA"/>
<path d="M76.8644 18.2882H40.7896C40.1353 18.2882 39.8657 18.7474 40.1945 19.3107L44.9422 27.4583C45.0244 27.5984 45.225 27.7123 45.3894 27.7123H61.5724L59.7016 30.9199C59.6194 31.06 59.6194 31.2912 59.7016 31.4312L64.8965 40.3441C64.9787 40.4841 65.1135 40.4841 65.1957 40.3441L77.4562 19.3107C77.785 18.7474 77.5154 18.2882 76.8611 18.2882H76.8644Z" fill="#0084CA"/>
<path d="M63.726 40.8293L58.9783 32.6817C58.8961 32.5417 58.6955 32.4277 58.5311 32.4277H42.3152L44.1959 29.2005C44.2781 29.0605 44.2781 28.8293 44.1959 28.6893L39.001 19.7764C38.9188 19.6364 38.784 19.6364 38.7018 19.7764L26.438 40.8065C26.267 41.0996 26.2637 41.3601 26.3886 41.5457C26.4972 41.7313 26.7273 41.8486 27.0561 41.8486H63.1276C63.7819 41.8486 64.0515 41.3894 63.7227 40.8261L63.726 40.8293Z" fill="#003B90"/>
<path d="M49.5387 17.0182C49.7031 17.0182 49.7689 16.9042 49.6867 16.7642L45.6689 9.86703C45.3401 9.30366 44.8042 9.30366 44.4754 9.86703L40.4543 16.7642C40.3721 16.9042 40.4378 17.0182 40.6022 17.0182H49.5354H49.5387Z" fill="#003B90"/>
</svg>
